<svg xmlns="http://www.w3.org/2000/svg" version="1.1" xmlns:xlink="http://www.w3.org/1999/xlink" xmlns:svgjs="http://svgjs.dev/svgjs" width="1000" height="1000"><g clip-path="url(#SvgjsClipPath1122)"><rect width="1000" height="1000" fill="#ffffff"></rect><g transform="matrix(7.8125,0,0,7.8125,0,0)"><svg xmlns="http://www.w3.org/2000/svg" version="1.1" xmlns:xlink="http://www.w3.org/1999/xlink" xmlns:svgjs="http://svgjs.dev/svgjs" width="128" height="128"><svg width="128" height="128" viewBox="0 0 128 128" fill="none" xmlns="http://www.w3.org/2000/svg">
<rect x="1.5" y="1.5" width="125" height="125" rx="8.5" stroke="#BDBDBD" stroke-width="3"></rect>
<rect x="5.5" y="5.5" width="39" height="39" fill="#242424" stroke="#BDBDBD" stroke-width="5"></rect>
<rect x="5.5" y="44.5" width="39" height="39" fill="#242424" stroke="#BDBDBD" stroke-width="5"></rect>
<rect x="5.5" y="83.5" width="39" height="39" fill="#242424" stroke="#BDBDBD" stroke-width="5"></rect>
<rect x="44.5" y="5.5" width="39" height="39" fill="#242424" stroke="#BDBDBD" stroke-width="5"></rect>
<rect x="44.5" y="44.5" width="39" height="39" fill="#242424" stroke="#BDBDBD" stroke-width="5"></rect>
<rect x="44.5" y="83.5" width="39" height="39" fill="#242424" stroke="#BDBDBD" stroke-width="5"></rect>
<rect x="83.5" y="5.5" width="39" height="39" fill="#242424" stroke="#BDBDBD" stroke-width="5"></rect>
<rect x="83.5" y="44.5" width="39" height="39" fill="#242424" stroke="#BDBDBD" stroke-width="5"></rect>
<rect x="83.5" y="83.5" width="39" height="39" fill="#242424" stroke="#BDBDBD" stroke-width="5"></rect>
<path d="M20.1364 54.5455L24.6364 61.8068H24.7727L29.2727 54.5455H31.7614L26.2727 63.2727L31.7614 72H29.2727L24.7727 64.875H24.6364L20.1364 72H17.6477L23.2727 63.2727L17.6477 54.5455H20.1364Z" fill="white"></path>
<path d="M98.1364 93.5455L102.636 100.807H102.773L107.273 93.5455H109.761L104.273 102.273L109.761 111H107.273L102.773 103.875H102.636L98.1364 111H95.6477L101.273 102.273L95.6477 93.5455H98.1364Z" fill="white"></path>
<path d="M71.8409 63.2727C71.8409 65.1136 71.5085 66.7045 70.8438 68.0455C70.179 69.3864 69.267 70.4205 68.108 71.1477C66.9489 71.875 65.625 72.2386 64.1364 72.2386C62.6477 72.2386 61.3239 71.875 60.1648 71.1477C59.0057 70.4205 58.0938 69.3864 57.429 68.0455C56.7642 66.7045 56.4318 65.1136 56.4318 63.2727C56.4318 61.4318 56.7642 59.8409 57.429 58.5C58.0938 57.1591 59.0057 56.125 60.1648 55.3977C61.3239 54.6705 62.6477 54.3068 64.1364 54.3068C65.625 54.3068 66.9489 54.6705 68.108 55.3977C69.267 56.125 70.179 57.1591 70.8438 58.5C71.5085 59.8409 71.8409 61.4318 71.8409 63.2727ZM69.7955 63.2727C69.7955 61.7614 69.5426 60.4858 69.0369 59.446C68.5369 58.4062 67.858 57.6193 67 57.0852C66.1477 56.5511 65.1932 56.2841 64.1364 56.2841C63.0795 56.2841 62.1222 56.5511 61.2642 57.0852C60.4119 57.6193 59.733 58.4062 59.2273 59.446C58.7273 60.4858 58.4773 61.7614 58.4773 63.2727C58.4773 64.7841 58.7273 66.0597 59.2273 67.0994C59.733 68.1392 60.4119 68.9261 61.2642 69.4602C62.1222 69.9943 63.0795 70.2614 64.1364 70.2614C65.1932 70.2614 66.1477 69.9943 67 69.4602C67.858 68.9261 68.5369 68.1392 69.0369 67.0994C69.5426 66.0597 69.7955 64.7841 69.7955 63.2727Z" fill="white"></path>
<path d="M110.841 24.2727C110.841 26.1136 110.509 27.7045 109.844 29.0455C109.179 30.3864 108.267 31.4205 107.108 32.1477C105.949 32.875 104.625 33.2386 103.136 33.2386C101.648 33.2386 100.324 32.875 99.1648 32.1477C98.0057 31.4205 97.0938 30.3864 96.429 29.0455C95.7642 27.7045 95.4318 26.1136 95.4318 24.2727C95.4318 22.4318 95.7642 20.8409 96.429 19.5C97.0938 18.1591 98.0057 17.125 99.1648 16.3977C100.324 15.6705 101.648 15.3068 103.136 15.3068C104.625 15.3068 105.949 15.6705 107.108 16.3977C108.267 17.125 109.179 18.1591 109.844 19.5C110.509 20.8409 110.841 22.4318 110.841 24.2727ZM108.795 24.2727C108.795 22.7614 108.543 21.4858 108.037 20.446C107.537 19.4062 106.858 18.6193 106 18.0852C105.148 17.5511 104.193 17.2841 103.136 17.2841C102.08 17.2841 101.122 17.5511 100.264 18.0852C99.4119 18.6193 98.733 19.4062 98.2273 20.446C97.7273 21.4858 97.4773 22.7614 97.4773 24.2727C97.4773 25.7841 97.7273 27.0597 98.2273 28.0994C98.733 29.1392 99.4119 29.9261 100.264 30.4602C101.122 30.9943 102.08 31.2614 103.136 31.2614C104.193 31.2614 105.148 30.9943 106 30.4602C106.858 29.9261 107.537 29.1392 108.037 28.0994C108.543 27.0597 108.795 25.7841 108.795 24.2727Z" fill="white"></path>
</svg></svg></g></g><defs><clipPath id="SvgjsClipPath1122"><rect width="1000" height="1000" x="0" y="0" rx="350" ry="350"></rect></clipPath></defs></svg>